<svg xmlns="http://www.w3.org/2000/svg" viewBox="0 0 512 512" width="512" height="512">
  <!-- Background -->
  <rect width="512" height="512" rx="80" fill="#9c27b0"/>
  
  <!-- Admin Shield Icon -->
  <g transform="translate(128, 64)">
    <!-- Shield Shape -->
    <path d="M 128 32 L 256 32 Q 256 32 256 64 L 256 192 Q 256 224 224 256 L 128 256 Q 96 224 96 192 L 96 64 Q 96 32 128 32 Z" 
          fill="#ffffff" opacity="0.95"/>
    
    <!-- Admin Badge -->
    <circle cx="176" cy="128" r="32" fill="#9c27b0" opacity="0.9"/>
    <path d="M 160 128 L 176 144 L 192 112" stroke="#ffffff" stroke-width="6" fill="none" stroke-linecap="round" stroke-linejoin="round"/>
    
    <!-- Gear Icon (Settings) -->
    <circle cx="208" cy="192" r="20" fill="none" stroke="#9c27b0" stroke-width="4"/>
    <circle cx="208" cy="192" r="8" fill="#9c27b0"/>
    <line x1="208" y1="172" x2="208" y2="162" stroke="#9c27b0" stroke-width="4" stroke-linecap="round"/>
    <line x1="228" y1="192" x2="238" y2="192" stroke="#9c27b0" stroke-width="4" stroke-linecap="round"/>
    <line x1="208" y1="212" x2="208" y2="222" stroke="#9c27b0" stroke-width="4" stroke-linecap="round"/>
    <line x1="188" y1="192" x2="178" y2="192" stroke="#9c27b0" stroke-width="4" stroke-linecap="round"/>
  </g>
  
  <!-- Admin Text (Optional) -->
  <text x="256" y="420" font-family="Arial, sans-serif" font-size="48" font-weight="bold" fill="#ffffff" text-anchor="middle" opacity="0.9">ADMIN</text>
</svg>

